<svg width="20" height="20" viewBox="0 0 20 20" fill="none" xmlns="http://www.w3.org/2000/svg">
<path d="M9.30669 13.925L3.31169 7.0725C2.60419 6.26625 3.17919 5 4.25294 5L16.2429 5C16.4832 4.99979 16.7185 5.06886 16.9206 5.19893C17.1226 5.32899 17.2829 5.51455 17.3822 5.73337C17.4816 5.95219 17.5157 6.195 17.4806 6.43272C17.4455 6.67045 17.3426 6.89301 17.1842 7.07375L11.1892 13.9237C11.0719 14.058 10.9272 14.1656 10.7648 14.2393C10.6025 14.3131 10.4262 14.3512 10.2479 14.3512C10.0696 14.3512 9.8934 14.3131 9.73105 14.2393C9.56871 14.1656 9.42402 14.058 9.30669 13.9237V13.925Z" fill="#4B4B4B"/>
</svg>
