<svg width="36" height="36" viewBox="0 0 36 36" fill="none" xmlns="http://www.w3.org/2000/svg">
<path d="M22.5201 6.47996L10.6001 18L22.5201 29.52C22.845 29.8329 23.2809 30.004 23.7319 29.9956C24.1829 29.9871 24.6121 29.7998 24.9251 29.475C25.2381 29.1501 25.4091 28.7142 25.4007 28.2631C25.3922 27.8121 25.205 27.3829 24.8801 27.07L15.4901 18L24.8801 8.91996C25.205 8.607 25.3922 8.1778 25.4007 7.72678C25.4091 7.27575 25.2381 6.83985 24.9251 6.51496C24.6121 6.19007 24.1829 6.00281 23.7319 5.99437C23.2809 5.98593 22.845 6.157 22.5201 6.46996L22.5201 6.47996Z" fill="#4B4B4B"/>
</svg>
