<svg width="24" height="24" viewBox="0 0 24 24" fill="none" xmlns="http://www.w3.org/2000/svg">
<path d="M23 6.5C23 5.04131 22.4205 3.64236 21.3891 2.61091C20.3576 1.57946 18.9587 1 17.5 1C16.0413 1 14.6424 1.57946 13.6109 2.61091C12.5795 3.64236 12 5.04131 12 6.5C12 7.95869 12.5795 9.35764 13.6109 10.3891C14.6424 11.4205 16.0413 12 17.5 12C18.9587 12 20.3576 11.4205 21.3891 10.3891C22.4205 9.35764 23 7.95869 23 6.5ZM18 7.001L18.001 9.505C18.001 9.63761 17.9483 9.76478 17.8546 9.85855C17.7608 9.95232 17.6336 10.005 17.501 10.005C17.3684 10.005 17.2412 9.95232 17.1474 9.85855C17.0537 9.76478 17.001 9.63761 17.001 9.505V7.001H14.496C14.3634 7.001 14.2362 6.94832 14.1424 6.85455C14.0487 6.76079 13.996 6.63361 13.996 6.501C13.996 6.36839 14.0487 6.24121 14.1424 6.14745C14.2362 6.05368 14.3634 6.001 14.496 6.001H17V3.5C17 3.36739 17.0527 3.24021 17.1464 3.14645C17.2402 3.05268 17.3674 3 17.5 3C17.6326 3 17.7598 3.05268 17.8536 3.14645C17.9473 3.24021 18 3.36739 18 3.5V6H20.497C20.6297 6 20.757 6.05273 20.8509 6.14659C20.9448 6.24046 20.9975 6.36776 20.9975 6.5005C20.9975 6.63324 20.9448 6.76054 20.8509 6.85441C20.757 6.94827 20.6297 7.001 20.497 7.001H18V7.001ZM11 6.501C11 4.848 11.617 3.339 12.633 2.191C11.6037 1.94407 10.5318 1.93378 9.49798 2.1609C8.46414 2.38803 7.49527 2.84665 6.66427 3.50228C5.83326 4.1579 5.16176 4.99344 4.70028 5.94605C4.23881 6.89865 3.99937 7.9435 4 9.002C3.99976 10.4966 4.47792 11.9521 5.3645 13.1554C6.25108 14.3587 7.49953 15.2466 8.92713 15.6892C10.3547 16.1318 11.8865 16.1058 13.2983 15.6151C14.7101 15.1244 15.9277 14.1946 16.773 12.962C15.185 12.7828 13.7187 12.0251 12.6538 10.8336C11.589 9.64201 11.0002 8.10004 11 6.502V6.501ZM16.002 15.246L16 21.25C16 21.3874 15.9622 21.5221 15.8909 21.6395C15.8195 21.7569 15.7172 21.8525 15.5953 21.9157C15.4733 21.979 15.3363 22.0075 15.1993 21.9982C15.0622 21.9889 14.9303 21.9421 14.818 21.863L11 19.175L7.183 21.863C7.0707 21.9419 6.93892 21.9884 6.802 21.9975C6.66508 22.0067 6.52828 21.9781 6.40648 21.9149C6.28469 21.8517 6.18257 21.7562 6.11125 21.639C6.03994 21.5218 6.00215 21.3872 6.002 21.25L6 15.25C7.41796 16.3874 9.18226 17.0056 11 17.002C12.819 17.0047 14.5842 16.3847 16.002 15.245V15.246Z" fill="#CECECE"/>
</svg>
