<svg width="18" height="18" viewBox="0 0 18 18" fill="none" xmlns="http://www.w3.org/2000/svg">
<path d="M17.4182 6.13385L12.0222 5.33912L9.60999 0.383373C9.54411 0.247688 9.43572 0.137847 9.30183 0.0710813C8.96604 -0.0969102 8.55799 0.0430827 8.39009 0.383373L5.97791 5.33912L0.581865 6.13385C0.433096 6.15539 0.297079 6.22646 0.192941 6.33415C0.0670438 6.46528 -0.00233122 6.6417 5.98176e-05 6.82464C0.00245086 7.00759 0.0764123 7.18208 0.205692 7.30979L4.10981 11.1671L3.18744 16.6139C3.16581 16.7406 3.17965 16.871 3.22738 16.9901C3.27511 17.1092 3.35483 17.2124 3.4575 17.288C3.56016 17.3636 3.68166 17.4085 3.80823 17.4176C3.9348 17.4268 4.06136 17.3998 4.17356 17.3397L9.00004 14.7682L13.8265 17.3397C13.9583 17.4108 14.1113 17.4345 14.258 17.4087C14.6277 17.3441 14.8764 16.9887 14.8126 16.6139L13.8903 11.1671L17.7944 7.30979C17.9007 7.20426 17.9708 7.06642 17.992 6.91566C18.0494 6.53875 17.7901 6.18985 17.4182 6.13385V6.13385Z" fill="#CECECE"/>
</svg>
